<?xml version="1.0" encoding="UTF-8" standalone="no"?>
<svg viewBox="0 0 300 200" version="1.1" id="jbo-logo"
   xmlns="http://www.w3.org/2000/svg"
   xmlns:svg="http://www.w3.org/2000/svg" fill="currentColor">
   <path id="path2" d="M 109.48047,35.003906 C 73.869274,35.30285 45.085937,64.379546 45.085937,100 c 0,35.62045 28.783337,64.69715 64.394533,64.99609 15.25846,0.12809 29.33746,-5.0752 40.51953,-13.83398 11.18207,8.75878 25.26107,13.96207 40.51953,13.83398 35.6112,-0.29894 64.39453,-29.37564 64.39453,-64.99609 0,-35.620454 -28.78333,-64.69715 -64.39453,-64.996094 C 175.26107,34.875817 161.18207,40.079109 150,48.837891 138.81793,40.079109 124.73893,34.875817 109.48047,35.003906 Z m 0.084,10 c 12.36242,-0.103778 23.76048,3.909622 32.9961,10.701172 C 131.94169,67.066913 125.27879,82.190777 125,98.916016 l 10,0.167968 c 0.2383,-14.296255 5.92375,-27.173354 15,-36.796875 9.07625,9.623521 14.7617,22.50062 15,36.796875 l 10,-0.167968 c -0.27879,-16.725239 -6.94169,-31.849103 -17.56055,-43.210938 9.23562,-6.79155 20.63368,-10.80495 32.9961,-10.701172 30.23345,0.2538 54.47851,24.742036 54.47851,54.996094 0,30.25406 -24.24506,54.74229 -54.47851,54.99609 -12.36242,0.10378 -23.76048,-3.90962 -32.9961,-10.70117 10.61886,-11.36183 17.28176,-26.4857 17.56055,-43.21094 l -10,-0.16796 c -0.2383,14.29625 -5.92375,27.17335 -15,36.79687 -9.07625,-9.62352 -14.7617,-22.50062 -15,-36.79687 l -10,0.16796 c 0.27879,16.72524 6.94169,31.84911 17.56055,43.21094 -9.23562,6.79155 -20.63368,10.80495 -32.9961,10.70117 C 79.331005,154.74229 55.085938,130.25406 55.085937,100 c 0,-30.254058 24.245068,-54.742294 54.478513,-54.996094 z" />
   <path id="path3" d="m 150,6 -15,24 10,-4 V 95 H 36 l 4,-10 -24,15 24,15 -4,-10 h 109 v 69 l -10,-4 15,24 15,-24 -10,4 v -69 h 109 l -4,10 24,-15 -24,-15 4,10 H 155 V 26 l 10,4 z" />
</svg>
